<?xml version="1.0" encoding="utf-8"?>
<!-- Generator: Adobe Illustrator 18.1.1, SVG Export Plug-In . SVG Version: 6.00 Build 0)  -->
<!DOCTYPE svg PUBLIC "-//W3C//DTD SVG 1.1//EN" "http://www.w3.org/Graphics/SVG/1.1/DTD/svg11.dtd">
<svg version="1.1" id="Layer_1" xmlns="http://www.w3.org/2000/svg" xmlns:xlink="http://www.w3.org/1999/xlink" x="0px" y="0px"
	 viewBox="0 0 300 105" enable-background="new 0 0 300 105" xml:space="preserve">
<g>
	<g>
		<path fill="#8068AD" d="M18,69.2c-9.1,0-16.6-7.4-16.6-16.6c0-4.4,1.7-8.6,4.8-11.7C9.4,37.8,13.6,36,18,36
			c4.3,0,8.4,1.7,11.5,4.7c3.3,3.2,5.1,7.4,5.1,11.9C34.6,61.8,27.2,69.2,18,69.2z M18,40.3c-3.3,0-6.4,1.3-8.7,3.6
			c-2.3,2.3-3.6,5.4-3.6,8.7c0,6.8,5.5,12.3,12.3,12.3s12.3-5.5,12.3-12.3c0-3.4-1.3-6.5-3.7-8.8C24.3,41.6,21.2,40.3,18,40.3z"/>
	</g>
	<g>
		<path fill="#3CC4F1" d="M44.2,98.1c-9.1,0-16.6-7.4-16.6-16.6c0-4.5,1.8-8.8,5.1-11.9c3.1-3,7.2-4.7,11.5-4.7
			c4.4,0,8.6,1.7,11.7,4.9c3.1,3.1,4.8,7.3,4.8,11.7C60.8,90.6,53.3,98.1,44.2,98.1z M44.2,69.2c-3.2,0-6.2,1.2-8.5,3.5
			c-2.4,2.3-3.7,5.5-3.7,8.8c0,6.8,5.5,12.3,12.3,12.3s12.3-5.5,12.3-12.3c0-3.3-1.3-6.4-3.6-8.7C50.6,70.5,47.5,69.2,44.2,69.2z"/>
	</g>
	<g>
		<path fill="#DE3291" d="M44.2,40.3c-9.1,0-16.6-7.4-16.6-16.6c0-4.5,1.8-8.8,5.1-11.9c3.1-3,7.2-4.7,11.5-4.7
			c4.4,0,8.6,1.7,11.7,4.9c3.1,3.1,4.8,7.3,4.8,11.7C60.8,32.9,53.3,40.3,44.2,40.3z M44.2,11.5c-3.2,0-6.2,1.2-8.5,3.5
			c-2.4,2.3-3.7,5.5-3.7,8.8c0,6.8,5.5,12.3,12.3,12.3s12.3-5.5,12.3-12.3c0-3.3-1.3-6.4-3.6-8.7C50.6,12.7,47.5,11.5,44.2,11.5z"/>
	</g>
	<g>
		<path fill="#FFFFFF" d="M103.5,31.5c7.2,0,11.7,3.2,13.5,4.8c0.6,0.6,0.6,1.2,0.1,1.9l-0.4,0.6c-0.6,0.7-1.2,0.7-1.9,0.2
			c-1.8-1.5-5.7-4.2-11.3-4.2c-9.4,0-17.2,7-17.2,17.9c0,10.7,7.8,17.7,17.2,17.7c6.4,0,10.6-3,12.4-4.7c0.6-0.6,1.3-0.6,1.9,0.2
			l0.4,0.6c0.5,0.6,0.3,1.3-0.3,1.9c-1.9,1.7-6.7,5.4-14.3,5.4c-11.4,0-20.8-8.2-20.8-21S92.3,31.5,103.5,31.5z"/>
		<path fill="#FFFFFF" d="M146,31.5c11.5,0,20.9,9.1,20.9,20.9c0,12-9.3,21.3-20.9,21.3c-11.5,0-20.9-9.3-20.9-21.3
			C125.1,40.6,134.4,31.5,146,31.5z M146,70.4c9.6,0,17.3-7.8,17.3-18c0-10-7.7-17.6-17.3-17.6s-17.3,7.6-17.3,17.6
			C128.6,62.6,136.4,70.4,146,70.4z"/>
		<path fill="#FFFFFF" d="M192.7,31.5c10.1,0,13.9,9.1,13.9,9.1h0.2c0,0-0.3-1.4-0.3-3.3V17.7c0-0.9,0.5-1.4,1.4-1.4h0.6
			c0.9,0,1.4,0.5,1.4,1.4v53.6c0,0.9-0.5,1.4-1.4,1.4h-0.6c-0.9,0-1.4-0.5-1.4-1.4v-3.7c0-1.9,0.3-3.1,0.3-3.1h-0.2
			c0,0-3.5,9.1-14.6,9.1c-10.8,0-17.4-8.6-17.4-21.1C174.6,39.8,182.1,31.5,192.7,31.5z M192.2,70.4c7.4,0,14.3-5.2,14.3-17.9
			c0-8.9-4.6-17.7-14-17.7c-7.9,0-14.3,6.5-14.3,17.8C178.2,63.5,184,70.4,192.2,70.4z"/>
		<path fill="#FFFFFF" d="M240.1,31.5c10.5,0,16.4,7.6,16.4,19.2c0,0.9-0.6,1.4-1.4,1.4h-31c0,11.7,7.9,18.4,17.2,18.4
			c5.6,0,9.6-2.6,11.4-4.1c0.7-0.6,1.4-0.5,1.9,0.2l0.5,0.6c0.4,0.6,0.3,1.3-0.3,1.8c-1.9,1.6-6.8,4.8-13.4,4.8
			c-11.4,0-20.8-8.2-20.8-21C220.5,39.1,229.8,31.5,240.1,31.5z M253,48.9c-0.4-9.8-6.3-14.3-13-14.3c-7.4,0-14.3,4.8-15.7,14.3H253
			z"/>
		<path fill="#FFFFFF" d="M282.4,31.5c10.1,0,13.9,9,13.9,9h0.2c0,0-0.2-1.4-0.2-3.2v-3.5c0-0.9,0.5-1.4,1.4-1.4h0.6
			c0.9,0,1.4,0.5,1.4,1.4v53.6c0,0.9-0.5,1.4-1.4,1.4h-0.6c-0.9,0-1.4-0.5-1.4-1.4V68.2c0-2.1,0.3-3.5,0.3-3.5h-0.2
			c0,0-3.5,9.1-14.6,9.1c-10.8,0-17.4-8.6-17.4-21.1C264.4,39.8,271.8,31.5,282.4,31.5z M281.9,70.4c7.4,0,14.3-5.2,14.3-17.9
			c0-8.9-4.6-17.7-14-17.7c-7.9,0-14.3,6.5-14.3,17.8C267.9,63.5,273.7,70.4,281.9,70.4z"/>
	</g>
</g>
</svg>
